<svg width="192" height="190" viewBox="0 0 192 190" fill="none" xmlns="http://www.w3.org/2000/svg">
<rect width="192" height="190" rx="28" fill="white"/>
<rect x="13.5" y="13.5" width="165" height="163" rx="25.5" stroke="#00607E" stroke-width="5"/>
<path fill-rule="evenodd" clip-rule="evenodd" d="M52.1814 26.1632C50.8696 26.4814 48.5544 27.8443 47.7885 28.7494C47.4038 29.2041 46.7726 30.2483 46.3858 31.0695L45.6826 32.5627V51.9738V71.3849L46.4376 72.9218C47.273 74.6227 48.714 76.0686 50.4892 76.9873C51.3477 77.4314 52.2816 77.6223 54.0308 77.7108L56.4062 77.8313V86.856C56.4062 95.5753 56.4253 95.9054 56.969 96.5963C57.3928 97.1355 57.7753 97.3117 58.5214 97.3117C59.4604 97.3117 60.0118 96.8116 69.298 87.5383L79.085 77.7648H93.5266C107.322 77.7648 108.033 77.7404 109.425 77.2197C111.498 76.444 112.966 75.0763 114.017 72.9408L114.911 71.1259L114.993 53.2259C115.044 42.2267 114.971 34.6553 114.805 33.5862C114.299 30.3362 112.675 28.0799 109.889 26.7564L108.396 26.047L80.7041 26.0044C65.4738 25.9811 52.6386 26.0525 52.1814 26.1632ZM108.069 30.3503C109.392 30.9031 110.637 32.475 110.835 33.8408C110.927 34.4818 110.966 43.008 110.921 52.7883C110.83 72.5325 110.922 71.5611 109.01 72.9245L108.124 73.5568L92.7186 73.6926L77.3135 73.8283L69.0979 82.0407C64.5796 86.5574 60.7915 90.2531 60.6805 90.2531C60.5695 90.2531 60.4785 86.8853 60.4785 82.7694C60.4785 78.4072 60.3678 75.0788 60.2127 74.7891C59.7955 74.0094 58.4451 73.6926 55.5378 73.6926C52.4643 73.6926 51.6816 73.4105 50.5156 71.8815L49.7549 70.8846L49.6819 52.2665L49.6086 33.6486L50.2248 32.428C50.6323 31.6206 51.2081 31.0019 51.9268 30.6001L53.0127 29.9925L80.1019 29.9879C102.247 29.9844 107.351 30.0506 108.069 30.3503ZM59.7512 43.6091C58.4456 44.2403 58.3723 46.3956 59.6331 47.0705C59.9988 47.2663 66.6648 47.3586 80.4147 47.3586C100.296 47.3586 100.668 47.3488 101.201 46.8156C102.01 46.0071 101.925 44.5541 101.029 43.8491C100.319 43.2909 100.15 43.2866 80.3281 43.3048C66.9217 43.317 60.1481 43.4172 59.7512 43.6091ZM120.345 46.1078C119.473 46.9796 119.451 48.1513 120.29 48.9402C120.908 49.5201 121.067 49.5304 129.342 49.5304C137.612 49.5304 137.788 49.5418 138.948 50.1557C139.756 50.583 140.328 51.155 140.756 51.9629L141.381 53.1453V71.4362C141.381 86.2707 141.311 89.895 141.011 90.6139C140.538 91.7438 139.205 92.868 137.911 93.2275C137.309 93.3947 133.204 93.5085 127.739 93.5093C118.939 93.5109 118.555 93.5324 118.033 94.0539C117.515 94.5716 117.49 94.9587 117.49 102.4V110.204L109.14 101.857L100.791 93.5109L92.512 93.499C83.8593 93.4865 82.8632 93.3722 81.5981 92.2472C80.8713 91.6013 80.039 89.7842 80.0314 88.8278C80.0232 87.8005 79.1444 86.9953 78.0313 86.9953C76.706 86.9953 76.1462 87.7446 76.185 89.4661C76.2458 92.1671 78.0243 94.9395 80.6175 96.3762L82.0615 97.176L90.4775 97.2541L98.8936 97.3323L108.685 107.112C117.413 115.83 118.573 116.895 119.359 116.917C119.929 116.933 120.452 116.733 120.834 116.35C121.417 115.768 121.428 115.601 121.505 106.545L121.583 97.3326L130.464 97.2544C139.29 97.1765 139.353 97.1719 140.652 96.5078C142.25 95.692 143.945 93.9021 144.731 92.2013C145.315 90.9378 145.317 90.8409 145.317 71.5207V52.1095L144.606 50.593C143.702 48.6652 142.246 47.2093 140.318 46.3052L138.802 45.5939L129.915 45.5092L121.028 45.4245L120.345 46.1078ZM59.344 57.1388C58.6856 57.7971 58.5575 58.1069 58.6978 58.6998C58.794 59.1068 59.1254 59.6533 59.4341 59.9147C59.9581 60.3581 61.3587 60.3898 80.327 60.3898C100.296 60.3898 100.668 60.38 101.201 59.8469C102.01 59.0384 101.925 57.5854 101.029 56.8803C100.32 56.3224 100.137 56.3176 80.2393 56.3176H60.1652L59.344 57.1388ZM120.834 63.1066C119.577 63.6126 119.281 65.3664 120.29 66.3152C120.889 66.8775 121.158 66.9054 125.962 66.9054C131.497 66.9054 131.93 66.7903 132.302 65.2155C132.443 64.6225 132.314 64.3128 131.656 63.6544L130.835 62.8332L126.131 62.8503C123.544 62.8598 121.16 62.9752 120.834 63.1066ZM118.918 76.0463C117.572 76.3268 117.027 78.3876 118.033 79.3937C118.544 79.9049 118.938 79.9367 124.79 79.9367C130.314 79.9367 131.067 79.8838 131.566 79.4616C132.483 78.6854 132.565 77.6904 131.787 76.785L131.113 76.0002L125.319 75.96C122.133 75.9377 119.252 75.9766 118.918 76.0463ZM43.9918 102.589C40.2032 103.506 36.1353 106.65 34.4844 109.936C32.8018 113.284 32.7282 113.712 32.5018 121.474C32.2732 129.31 32.0397 130.763 30.5951 133.347C29.6995 134.949 29.6097 135.74 30.2235 136.616C30.537 137.064 30.9185 137.22 31.7028 137.22C32.5794 137.22 32.8762 137.067 33.443 136.324C34.8708 134.452 35.9914 131.012 36.4454 127.107C36.6541 125.313 36.9864 125.091 37.2585 126.564C37.6165 128.503 39.0611 131.052 40.7728 132.763C43.7437 135.734 47.7975 137.079 51.7641 136.41C57.0844 135.513 61.3834 131.413 62.4207 126.248C62.5869 125.421 62.8103 124.798 62.917 124.864C63.024 124.93 63.186 125.996 63.2775 127.234C63.549 130.91 64.9868 135.213 66.4243 136.65C67.2597 137.485 68.7015 137.415 69.4177 136.505C69.7272 136.111 69.9805 135.661 69.9805 135.504C69.9805 135.347 69.5684 134.417 69.0645 133.437C67.5089 130.41 67.2168 128.65 66.9887 120.931C66.8701 116.908 66.6464 113.553 66.4552 112.922C64.9795 108.049 60.6566 103.901 55.7134 102.613C53.7221 102.095 46.0964 102.078 43.9918 102.589ZM135.077 102.46C131.065 103.193 127.744 106.17 126.609 110.053C125.996 112.15 125.997 120.76 126.611 122.85C127.942 127.381 131.109 130.574 135.655 131.966C137.193 132.438 140.579 132.432 142.372 131.954C146.43 130.874 149.684 127.844 151.222 123.713C151.744 122.311 151.805 121.586 151.818 116.587C151.835 110.434 151.651 109.483 150.363 109.034C149.515 108.739 147.911 109.268 147.875 109.855C147.863 110.049 147.832 112.834 147.807 116.044C147.763 121.545 147.725 121.954 147.134 123.14C146.137 125.145 144.771 126.533 142.877 127.465C138.526 129.607 133.411 127.825 131.016 123.333C130.436 122.244 130.38 121.765 130.296 117.151C130.193 111.444 130.384 110.376 131.805 108.716C133.593 106.627 134.34 106.408 139.717 106.396C144.316 106.385 144.445 106.37 144.943 105.755C145.223 105.408 145.453 104.961 145.453 104.76C145.453 104.018 144.829 103.063 144.134 102.74C143.255 102.332 136.862 102.134 135.077 102.46ZM56.6881 107.274C58.9281 108.378 60.8152 110.264 61.9166 112.502C62.6952 114.083 62.7916 114.552 62.882 117.198L62.9827 120.138L59.7623 118.198C57.9912 117.131 56.4934 116.212 56.4339 116.156C56.3745 116.1 56.7714 115.482 57.3163 114.783C58.4427 113.337 58.5874 112.253 57.7637 111.429C57.4501 111.115 56.8588 110.886 56.3636 110.886C55.6523 110.886 55.1789 111.228 53.5809 112.896C50.3158 116.304 47.0064 118.483 42.8364 119.969C41.0302 120.613 37.5823 121.474 36.8094 121.474C36.6186 121.474 36.5599 120.324 36.6327 118.012C36.7331 114.827 36.8089 114.408 37.5848 112.753C38.5814 110.626 39.9133 109.076 41.7613 107.89C44.0084 106.448 44.904 106.284 50.1697 106.348C54.9212 106.406 54.9305 106.408 56.6881 107.274ZM55.923 120.591L58.6232 122.153L58.5287 124.189C58.3696 127.604 56.5678 130.293 53.462 131.749C51.4498 132.692 48.2617 132.749 46.3282 131.875C43.8865 130.772 41.7909 128.315 41.2572 125.929L41.0087 124.818L43.3457 124.061C46.1574 123.15 49.219 121.64 51.248 120.163C52.0693 119.566 52.8495 119.067 52.982 119.054C53.1145 119.041 54.438 119.733 55.923 120.591ZM122.437 137.59C116.816 140.443 115.527 141.482 114.15 144.272L113.282 146.03L113.201 154.897L113.119 163.765L113.848 164.338C114.249 164.653 114.738 164.911 114.935 164.911C115.738 164.911 116.666 164.245 116.934 163.476C117.107 162.979 117.219 159.633 117.219 154.953C117.219 149.029 117.305 147.041 117.592 146.354C118.384 144.458 119.599 143.499 123.991 141.299L128.225 139.179L130.391 140.047L132.558 140.914L132.706 144.293C132.851 147.612 132.999 148.192 134.099 149.741C134.34 150.081 134.207 151.648 133.516 156.613C132.549 163.561 132.573 164.078 133.891 164.678C134.768 165.078 135.856 164.779 136.267 164.026C136.449 163.692 136.971 160.855 137.428 157.722L138.259 152.025L139.004 151.969C139.903 151.901 139.801 151.525 140.713 158.26C141.107 161.171 141.584 163.682 141.807 164.025C142.613 165.262 144.659 165.065 145.178 163.7C145.361 163.218 145.172 161.178 144.517 156.57C143.762 151.253 143.662 150.044 143.951 149.708C144.991 148.5 145.284 147.373 145.399 144.136L145.514 140.872L147.698 140.005L149.882 139.138L154.244 141.369C158.935 143.768 160.029 144.719 160.644 146.932C160.807 147.521 160.925 151.214 160.926 155.761L160.928 163.579L161.594 164.245C162.449 165.1 163.485 165.094 164.351 164.228L165.034 163.544L164.949 154.929L164.864 146.315L163.997 144.485C162.575 141.483 161.188 140.34 155.53 137.507C152.828 136.155 150.311 135.048 149.936 135.048C149.562 135.048 146.949 135.971 144.13 137.099L139.005 139.149L133.888 137.099C131.074 135.971 128.463 135.053 128.085 135.059C127.708 135.066 125.166 136.204 122.437 137.59ZM34.4119 140.054C30.2615 142.153 28.7529 143.326 27.5342 145.406C26.2109 147.664 26 149.217 26 156.701V163.579L26.6665 164.245C27.033 164.611 27.6493 164.911 28.0361 164.911C28.423 164.911 29.0393 164.611 29.4058 164.245L30.0723 163.579V156.692C30.0723 148.934 30.2305 148.024 31.8755 146.33C32.4057 145.784 34.1168 144.703 35.7267 143.898L38.624 142.448L43.6465 147.01C46.6092 149.701 48.9795 151.645 49.4267 151.75C50.4178 151.983 50.4863 151.933 56.2314 146.754L61.0788 142.384L63.7882 143.775C67.1483 145.502 67.9872 146.198 68.7949 147.932C69.409 149.251 69.4323 149.544 69.4348 155.98C69.4364 159.936 69.5537 162.992 69.7226 163.476C69.9905 164.245 70.9184 164.911 71.7212 164.911C71.9181 164.911 72.401 164.658 72.7944 164.349L73.5098 163.786V156.504C73.5098 149.972 73.4538 149.045 72.9654 147.497C72.3228 145.46 70.9654 143.519 69.3666 142.351C67.6989 141.133 61.4195 138.034 60.6189 138.034C59.8908 138.034 59.8688 138.052 53.7563 143.562C50.2968 146.681 49.8325 147.014 49.4117 146.685C49.1525 146.483 47.169 144.724 45.0039 142.777C40.1927 138.45 39.6535 138.031 38.9267 138.049C38.611 138.057 36.5792 138.959 34.4119 140.054ZM138.938 143.047C139.609 143.052 140.434 142.957 140.77 142.835C141.366 142.618 141.381 142.658 141.381 144.517C141.381 146.104 141.279 146.535 140.77 147.114C139.835 148.177 138.678 148.283 137.629 147.401C136.8 146.702 136.766 146.593 136.766 144.633C136.766 142.785 136.811 142.613 137.241 142.815C137.502 142.937 138.266 143.042 138.938 143.047Z" fill="#00607E" stroke="#00607E" stroke-width="2"/>
</svg>
