<svg width="170" height="168" viewBox="0 0 170 168" fill="none" xmlns="http://www.w3.org/2000/svg">
<rect x="2.5" y="2.5" width="165" height="163" rx="25.5" stroke="#00607E" stroke-width="5"/>
<path fill-rule="evenodd" clip-rule="evenodd" d="M41.1814 15.1632C39.8696 15.4814 37.5544 16.8443 36.7885 17.7494C36.4038 18.2041 35.7726 19.2483 35.3858 20.0695L34.6826 21.5627V40.9738V60.3849L35.4376 61.9218C36.273 63.6227 37.714 65.0686 39.4892 65.9873C40.3477 66.4314 41.2816 66.6223 43.0308 66.7108L45.4062 66.8313V75.856C45.4062 84.5753 45.4253 84.9054 45.969 85.5963C46.3928 86.1355 46.7753 86.3117 47.5214 86.3117C48.4604 86.3117 49.0118 85.8116 58.298 76.5383L68.085 66.7648H82.5266C96.3223 66.7648 97.0331 66.7404 98.425 66.2197C100.498 65.444 101.966 64.0763 103.017 61.9408L103.911 60.1259L103.993 42.2259C104.044 31.2267 103.971 23.6553 103.805 22.5862C103.299 19.3362 101.675 17.0799 98.8887 15.7564L97.3955 15.047L69.7041 15.0044C54.4738 14.9811 41.6386 15.0525 41.1814 15.1632ZM97.0692 19.3503C98.3921 19.9031 99.6374 21.475 99.8345 22.8408C99.9271 23.4818 99.9659 32.008 99.9209 41.7883C99.8299 61.5325 99.9219 60.5611 98.0104 61.9245L97.124 62.5568L81.7186 62.6926L66.3135 62.8283L58.0979 71.0407C53.5796 75.5574 49.7915 79.2531 49.6805 79.2531C49.5695 79.2531 49.4785 75.8853 49.4785 71.7694C49.4785 67.4072 49.3678 64.0788 49.2127 63.7891C48.7955 63.0094 47.4451 62.6926 44.5378 62.6926C41.4643 62.6926 40.6816 62.4105 39.5156 60.8815L38.7549 59.8846L38.6819 41.2665L38.6086 22.6486L39.2248 21.428C39.6323 20.6206 40.2081 20.0019 40.9268 19.6001L42.0127 18.9925L69.1019 18.9879C91.2475 18.9844 96.3514 19.0506 97.0692 19.3503ZM48.7512 32.6091C47.4456 33.2403 47.3723 35.3956 48.6331 36.0705C48.9988 36.2663 55.6648 36.3586 69.4147 36.3586C89.2963 36.3586 89.668 36.3488 90.2012 35.8156C91.0097 35.0071 90.9252 33.5541 90.0288 32.8491C89.3194 32.2909 89.1497 32.2866 69.3281 32.3048C55.9217 32.317 49.1481 32.4172 48.7512 32.6091ZM109.345 35.1078C108.473 35.9796 108.451 37.1513 109.29 37.9402C109.908 38.5201 110.067 38.5304 118.342 38.5304C126.612 38.5304 126.788 38.5418 127.948 39.1557C128.756 39.583 129.328 40.155 129.756 40.9629L130.381 42.1453V60.4362C130.381 75.2707 130.311 78.895 130.011 79.6139C129.538 80.7438 128.205 81.868 126.911 82.2275C126.309 82.3947 122.204 82.5085 116.739 82.5093C107.939 82.5109 107.555 82.5324 107.033 83.0539C106.515 83.5716 106.49 83.9587 106.49 91.4004V99.204L98.1405 90.8574L89.7907 82.5109L81.512 82.499C72.8593 82.4865 71.8632 82.3722 70.5981 81.2472C69.8713 80.6013 69.039 78.7842 69.0314 77.8278C69.0232 76.8005 68.1444 75.9953 67.0313 75.9953C65.706 75.9953 65.1462 76.7446 65.185 78.4661C65.2458 81.1671 67.0243 83.9395 69.6175 85.3762L71.0615 86.176L79.4775 86.2541L87.8936 86.3323L97.6852 96.1123C106.413 104.83 107.573 105.895 108.359 105.917C108.929 105.933 109.452 105.733 109.834 105.35C110.417 104.768 110.428 104.601 110.505 95.5454L110.583 86.3326L119.464 86.2544C128.29 86.1765 128.353 86.1719 129.652 85.5078C131.25 84.692 132.945 82.9021 133.731 81.2013C134.315 79.9378 134.317 79.8409 134.317 60.5207V41.1095L133.606 39.593C132.702 37.6652 131.246 36.2093 129.318 35.3052L127.802 34.5939L118.915 34.5092L110.028 34.4245L109.345 35.1078ZM48.344 46.1388C47.6856 46.7971 47.5575 47.1069 47.6979 47.6998C47.794 48.1068 48.1254 48.6533 48.4341 48.9147C48.9581 49.3581 50.3587 49.3898 69.327 49.3898C89.2963 49.3898 89.668 49.38 90.2012 48.8469C91.0097 48.0384 90.9252 46.5854 90.0288 45.8803C89.3197 45.3224 89.1367 45.3176 69.2393 45.3176H49.1652L48.344 46.1388ZM109.834 52.1066C108.577 52.6126 108.281 54.3664 109.29 55.3152C109.889 55.8775 110.158 55.9054 114.962 55.9054C120.497 55.9054 120.93 55.7903 121.302 54.2155C121.443 53.6225 121.314 53.3128 120.656 52.6544L119.835 51.8332L115.131 51.8503C112.544 51.8598 110.16 51.9752 109.834 52.1066ZM107.918 65.0463C106.572 65.3268 106.027 67.3876 107.033 68.3937C107.544 68.9049 107.938 68.9367 113.79 68.9367C119.314 68.9367 120.067 68.8838 120.566 68.4616C121.483 67.6854 121.565 66.6904 120.787 65.785L120.113 65.0002L114.319 64.96C111.133 64.9377 108.252 64.9766 107.918 65.0463ZM32.9918 91.5885C29.2032 92.5064 25.1353 95.6502 23.4844 98.9357C21.8018 102.284 21.7282 102.712 21.5018 110.474C21.2732 118.31 21.0397 119.763 19.5951 122.347C18.6995 123.949 18.6097 124.74 19.2235 125.616C19.537 126.064 19.9185 126.22 20.7028 126.22C21.5794 126.22 21.8762 126.067 22.443 125.324C23.8708 123.452 24.9914 120.012 25.4454 116.107C25.6541 114.313 25.9864 114.091 26.2585 115.564C26.6165 117.503 28.0611 120.052 29.7728 121.763C32.7437 124.734 36.7975 126.079 40.7641 125.41C46.0844 124.513 50.3834 120.413 51.4207 115.248C51.5869 114.421 51.8103 113.798 51.917 113.864C52.024 113.93 52.186 114.996 52.2775 116.234C52.549 119.91 53.9868 124.213 55.4243 125.65C56.2597 126.485 57.7015 126.415 58.4177 125.505C58.7272 125.111 58.9805 124.661 58.9805 124.504C58.9805 124.347 58.5684 123.417 58.0645 122.437C56.5089 119.41 56.2168 117.65 55.9887 109.931C55.8701 105.908 55.6464 102.553 55.4552 101.922C53.9795 97.0492 49.6566 92.9009 44.7134 91.6133C42.7221 91.0947 35.0964 91.0784 32.9918 91.5885ZM124.077 91.4601C120.065 92.1926 116.744 95.1702 115.609 99.053C114.996 101.15 114.997 109.76 115.611 111.85C116.942 116.381 120.109 119.574 124.655 120.966C126.193 121.438 129.579 121.432 131.372 120.954C135.43 119.874 138.684 116.844 140.222 112.713C140.744 111.311 140.805 110.586 140.818 105.587C140.835 99.4344 140.651 98.4834 139.363 98.0344C138.515 97.7387 136.911 98.2676 136.875 98.8548C136.863 99.0487 136.832 101.834 136.807 105.044C136.763 110.545 136.725 110.954 136.134 112.14C135.137 114.145 133.771 115.533 131.877 116.465C127.526 118.607 122.411 116.825 120.016 112.333C119.436 111.244 119.38 110.765 119.296 106.151C119.193 100.444 119.384 99.3755 120.805 97.7159C122.593 95.6269 123.34 95.4081 128.717 95.3958C133.316 95.3852 133.445 95.3695 133.943 94.7549C134.223 94.4082 134.453 93.9605 134.453 93.7601C134.453 93.0182 133.829 92.0631 133.134 91.7398C132.255 91.3317 125.862 91.1341 124.077 91.4601ZM45.6881 96.2738C47.9281 97.3777 49.8152 99.2645 50.9166 101.502C51.6952 103.083 51.7916 103.552 51.882 106.198L51.9827 109.138L48.7623 107.198C46.9912 106.131 45.4934 105.212 45.4339 105.156C45.3745 105.1 45.7714 104.482 46.3163 103.783C47.4427 102.337 47.5874 101.253 46.7637 100.429C46.4501 100.115 45.8588 99.8859 45.3636 99.8859C44.6523 99.8859 44.1789 100.228 42.5809 101.896C39.3158 105.304 36.0064 107.483 31.8364 108.969C30.0302 109.613 26.5823 110.474 25.8094 110.474C25.6186 110.474 25.5599 109.324 25.6327 107.012C25.7331 103.827 25.8089 103.408 26.5848 101.753C27.5814 99.6264 28.9133 98.0757 30.7613 96.8898C33.0084 95.448 33.904 95.2837 39.1697 95.3481C43.9212 95.4064 43.9305 95.4078 45.6881 96.2738ZM44.923 109.591L47.6232 111.153L47.5287 113.189C47.3696 116.604 45.5678 119.293 42.462 120.749C40.4498 121.692 37.2617 121.749 35.3282 120.875C32.8865 119.772 30.7909 117.315 30.2572 114.929L30.0087 113.818L32.3457 113.061C35.1574 112.15 38.219 110.64 40.248 109.163C41.0693 108.566 41.8495 108.067 41.982 108.054C42.1145 108.041 43.438 108.733 44.923 109.591ZM111.437 126.59C105.816 129.443 104.527 130.482 103.15 133.272L102.282 135.03L102.201 143.897L102.119 152.765L102.848 153.338C103.249 153.653 103.738 153.911 103.935 153.911C104.738 153.911 105.666 153.245 105.934 152.476C106.107 151.979 106.219 148.633 106.219 143.953C106.219 138.029 106.305 136.041 106.592 135.354C107.384 133.458 108.599 132.499 112.991 130.3L117.225 128.179L119.391 129.047L121.558 129.914L121.706 133.293C121.851 136.612 121.999 137.192 123.099 138.741C123.34 139.081 123.207 140.648 122.516 145.613C121.549 152.561 121.573 153.078 122.891 153.678C123.768 154.078 124.856 153.779 125.267 153.026C125.449 152.692 125.971 149.855 126.428 146.722L127.259 141.025L128.004 140.969C128.903 140.901 128.801 140.526 129.713 147.26C130.107 150.171 130.584 152.682 130.807 153.025C131.613 154.262 133.659 154.065 134.178 152.7C134.361 152.218 134.172 150.178 133.517 145.57C132.762 140.253 132.662 139.044 132.951 138.708C133.991 137.5 134.284 136.373 134.399 133.136L134.514 129.872L136.698 129.005L138.882 128.138L143.244 130.369C147.935 132.768 149.029 133.719 149.644 135.932C149.807 136.521 149.925 140.214 149.926 144.761L149.928 152.579L150.594 153.245C151.449 154.1 152.485 154.094 153.351 153.228L154.034 152.544L153.949 143.929L153.864 135.315L152.997 133.485C151.575 130.483 150.188 129.34 144.53 126.507C141.828 125.155 139.311 124.048 138.936 124.048C138.562 124.048 135.949 124.971 133.13 126.099L128.005 128.149L122.888 126.099C120.074 124.971 117.463 124.053 117.085 124.059C116.708 124.066 114.166 125.204 111.437 126.59ZM23.4119 129.054C19.2615 131.153 17.7529 132.326 16.5342 134.406C15.2109 136.664 15 138.217 15 145.701V152.579L15.6665 153.245C16.033 153.611 16.6493 153.911 17.0361 153.911C17.423 153.911 18.0393 153.611 18.4058 153.245L19.0723 152.579V145.692C19.0723 137.934 19.2305 137.024 20.8755 135.33C21.4057 134.784 23.1168 133.703 24.7267 132.898L27.624 131.448L32.6465 136.01C35.6092 138.701 37.9795 140.645 38.4267 140.75C39.4178 140.983 39.4863 140.933 45.2314 135.754L50.0788 131.384L52.7882 132.775C56.1483 134.502 56.9872 135.198 57.7949 136.932C58.409 138.251 58.4323 138.544 58.4348 144.98C58.4364 148.936 58.5537 151.992 58.7226 152.476C58.9905 153.245 59.9184 153.911 60.7212 153.911C60.9181 153.911 61.401 153.658 61.7944 153.349L62.5098 152.786V145.504C62.5098 138.972 62.4538 138.045 61.9654 136.497C61.3228 134.46 59.9654 132.519 58.3666 131.351C56.6989 130.133 50.4195 127.034 49.6189 127.034C48.8908 127.034 48.8688 127.052 42.7563 132.562C39.2968 135.681 38.8325 136.014 38.4117 135.685C38.1525 135.483 36.169 133.724 34.0039 131.777C29.1927 127.45 28.6535 127.031 27.9267 127.049C27.611 127.057 25.5792 127.959 23.4119 129.054ZM127.938 132.047C128.609 132.052 129.434 131.957 129.77 131.835C130.366 131.618 130.381 131.658 130.381 133.517C130.381 135.104 130.279 135.535 129.77 136.114C128.835 137.177 127.678 137.283 126.629 136.401C125.8 135.702 125.766 135.593 125.766 133.633C125.766 131.785 125.811 131.613 126.241 131.815C126.502 131.937 127.266 132.042 127.938 132.047Z" fill="#00607E" stroke="#00607E" stroke-width="2"/>
</svg>
